<svg width="57" height="40" viewBox="0 0 57 40" fill="none" xmlns="http://www.w3.org/2000/svg">
<path d="M1 20C1 9.23045 9.73045 0.5 20.5 0.5H36.5C47.2696 0.5 56 9.23045 56 20C56 30.7696 47.2696 39.5 36.5 39.5H20.5C9.73045 39.5 1 30.7696 1 20Z" stroke="#400074"/>
<mask id="mask0_78_342" style="mask-type:alpha" maskUnits="userSpaceOnUse" x="16" y="8" width="25" height="24">
<rect x="16.5" y="8" width="24" height="24" fill="#D9D9D9"/>
</mask>
<g mask="url(#mask0_78_342)">
<path d="M31.5 30V27.5L24.5 24H19.5V18H23.8L26.5 14.9V10H32.5V16H28.2L25.5 19.1V22.25L31.5 25.25V24H37.5V30H31.5ZM28.5 14H30.5V12H28.5V14ZM21.5 22H23.5V20H21.5V22ZM33.5 28H35.5V26H33.5V28Z" fill="#400074"/>
</g>
</svg>
