<svg width="57" height="40" viewBox="0 0 57 40" fill="none" xmlns="http://www.w3.org/2000/svg">
<path d="M1 20C1 9.23045 9.73045 0.5 20.5 0.5H36.5C47.2696 0.5 56 9.23045 56 20C56 30.7696 47.2696 39.5 36.5 39.5H20.5C9.73045 39.5 1 30.7696 1 20Z" stroke="#400074"/>
<mask id="mask0_78_336" style="mask-type:alpha" maskUnits="userSpaceOnUse" x="16" y="8" width="25" height="24">
<rect x="16.5" y="8" width="24" height="24" fill="#D9D9D9"/>
</mask>
<g mask="url(#mask0_78_336)">
<path d="M28.5 24C29.75 24 30.8125 23.5625 31.6875 22.6875C32.5625 21.8125 33 20.75 33 19.5C33 18.25 32.5625 17.1875 31.6875 16.3125C30.8125 15.4375 29.75 15 28.5 15C27.25 15 26.1875 15.4375 25.3125 16.3125C24.4375 17.1875 24 18.25 24 19.5C24 20.75 24.4375 21.8125 25.3125 22.6875C26.1875 23.5625 27.25 24 28.5 24ZM28.5 22.2C27.75 22.2 27.1125 21.9375 26.5875 21.4125C26.0625 20.8875 25.8 20.25 25.8 19.5C25.8 18.75 26.0625 18.1125 26.5875 17.5875C27.1125 17.0625 27.75 16.8 28.5 16.8C29.25 16.8 29.8875 17.0625 30.4125 17.5875C30.9375 18.1125 31.2 18.75 31.2 19.5C31.2 20.25 30.9375 20.8875 30.4125 21.4125C29.8875 21.9375 29.25 22.2 28.5 22.2ZM28.5 27C26.0667 27 23.85 26.3208 21.85 24.9625C19.85 23.6042 18.4 21.7833 17.5 19.5C18.4 17.2167 19.85 15.3958 21.85 14.0375C23.85 12.6792 26.0667 12 28.5 12C30.9333 12 33.15 12.6792 35.15 14.0375C37.15 15.3958 38.6 17.2167 39.5 19.5C38.6 21.7833 37.15 23.6042 35.15 24.9625C33.15 26.3208 30.9333 27 28.5 27ZM28.5 25C30.3833 25 32.1125 24.5042 33.6875 23.5125C35.2625 22.5208 36.4667 21.1833 37.3 19.5C36.4667 17.8167 35.2625 16.4792 33.6875 15.4875C32.1125 14.4958 30.3833 14 28.5 14C26.6167 14 24.8875 14.4958 23.3125 15.4875C21.7375 16.4792 20.5333 17.8167 19.7 19.5C20.5333 21.1833 21.7375 22.5208 23.3125 23.5125C24.8875 24.5042 26.6167 25 28.5 25Z" fill="#400074"/>
</g>
</svg>
