<svg width="56" height="40" viewBox="0 0 56 40" fill="none" xmlns="http://www.w3.org/2000/svg">
<rect x="0.5" y="0.5" width="55" height="39" rx="19.5" stroke="#400074"/>
<mask id="mask0_4066_4" style="mask-type:alpha" maskUnits="userSpaceOnUse" x="16" y="8" width="24" height="24">
<rect x="16" y="8" width="24" height="24" fill="#D9D9D9"/>
</mask>
<g mask="url(#mask0_4066_4)">
<path d="M22 30C21.1667 30 20.4583 29.7083 19.875 29.125C19.2917 28.5417 19 27.8333 19 27V24H22V10H37V27C37 27.8333 36.7083 28.5417 36.125 29.125C35.5417 29.7083 34.8333 30 34 30H22ZM34 28C34.2833 28 34.5208 27.9042 34.7125 27.7125C34.9042 27.5208 35 27.2833 35 27V12H24V24H33V27C33 27.2833 33.0958 27.5208 33.2875 27.7125C33.4792 27.9042 33.7167 28 34 28ZM25 17V15H34V17H25ZM25 20V18H34V20H25ZM22 28H31V26H21V27C21 27.2833 21.0958 27.5208 21.2875 27.7125C21.4792 27.9042 21.7167 28 22 28ZM22 28H21H31H22Z" fill="black"/>
</g>
</svg>
