<svg width="56" height="40" viewBox="0 0 56 40" fill="none" xmlns="http://www.w3.org/2000/svg">
<rect x="0.5" y="0.5" width="55" height="39" rx="19.5" stroke="#400074"/>
<mask id="mask0_4066_48" style="mask-type:alpha" maskUnits="userSpaceOnUse" x="16" y="8" width="24" height="24">
<rect x="16" y="8" width="24" height="24" fill="#D9D9D9"/>
</mask>
<g mask="url(#mask0_4066_48)">
<path d="M25 27V25H37V27H25ZM25 21V19H37V21H25ZM25 15V13H37V15H25ZM21 28C20.45 28 19.9792 27.8042 19.5875 27.4125C19.1958 27.0208 19 26.55 19 26C19 25.45 19.1958 24.9792 19.5875 24.5875C19.9792 24.1958 20.45 24 21 24C21.55 24 22.0208 24.1958 22.4125 24.5875C22.8042 24.9792 23 25.45 23 26C23 26.55 22.8042 27.0208 22.4125 27.4125C22.0208 27.8042 21.55 28 21 28ZM21 22C20.45 22 19.9792 21.8042 19.5875 21.4125C19.1958 21.0208 19 20.55 19 20C19 19.45 19.1958 18.9792 19.5875 18.5875C19.9792 18.1958 20.45 18 21 18C21.55 18 22.0208 18.1958 22.4125 18.5875C22.8042 18.9792 23 19.45 23 20C23 20.55 22.8042 21.0208 22.4125 21.4125C22.0208 21.8042 21.55 22 21 22ZM21 16C20.45 16 19.9792 15.8042 19.5875 15.4125C19.1958 15.0208 19 14.55 19 14C19 13.45 19.1958 12.9792 19.5875 12.5875C19.9792 12.1958 20.45 12 21 12C21.55 12 22.0208 12.1958 22.4125 12.5875C22.8042 12.9792 23 13.45 23 14C23 14.55 22.8042 15.0208 22.4125 15.4125C22.0208 15.8042 21.55 16 21 16Z" fill="black"/>
</g>
</svg>
