<svg width="56" height="40" viewBox="0 0 56 40" fill="none" xmlns="http://www.w3.org/2000/svg">
<rect x="0.5" y="0.5" width="55" height="39" rx="19.5" stroke="#400074"/>
<mask id="mask0_4066_185" style="mask-type:alpha" maskUnits="userSpaceOnUse" x="16" y="8" width="24" height="24">
<rect x="16" y="8" width="24" height="24" fill="#D9D9D9"/>
</mask>
<g mask="url(#mask0_4066_185)">
<path d="M28 29C25.7 29 23.6958 28.2375 21.9875 26.7125C20.2792 25.1875 19.3 23.2833 19.05 21H21.1C21.3333 22.7333 22.1042 24.1667 23.4125 25.3C24.7208 26.4333 26.25 27 28 27C29.95 27 31.6042 26.3208 32.9625 24.9625C34.3208 23.6042 35 21.95 35 20C35 18.05 34.3208 16.3958 32.9625 15.0375C31.6042 13.6792 29.95 13 28 13C26.85 13 25.775 13.2667 24.775 13.8C23.775 14.3333 22.9333 15.0667 22.25 16H25V18H19V12H21V14.35C21.85 13.2833 22.8875 12.4583 24.1125 11.875C25.3375 11.2917 26.6333 11 28 11C29.25 11 30.4208 11.2375 31.5125 11.7125C32.6042 12.1875 33.5542 12.8292 34.3625 13.6375C35.1708 14.4458 35.8125 15.3958 36.2875 16.4875C36.7625 17.5792 37 18.75 37 20C37 21.25 36.7625 22.4208 36.2875 23.5125C35.8125 24.6042 35.1708 25.5542 34.3625 26.3625C33.5542 27.1708 32.6042 27.8125 31.5125 28.2875C30.4208 28.7625 29.25 29 28 29ZM30.8 24.2L27 20.4V15H29V19.6L32.2 22.8L30.8 24.2Z" fill="black"/>
</g>
</svg>
