<svg width="56" height="40" viewBox="0 0 56 40" fill="none" xmlns="http://www.w3.org/2000/svg">
<rect x="0.5" y="0.5" width="55" height="39" rx="19.5" stroke="#400074"/>
<mask id="mask0_4066_204" style="mask-type:alpha" maskUnits="userSpaceOnUse" x="16" y="8" width="24" height="24">
<rect x="16" y="8" width="24" height="24" fill="#D9D9D9"/>
</mask>
<g mask="url(#mask0_4066_204)">
<path d="M28 23C28.8333 23 29.5417 22.7083 30.125 22.125C30.7083 21.5417 31 20.8333 31 20C31 19.1667 30.7083 18.4583 30.125 17.875C29.5417 17.2917 28.8333 17 28 17C27.1667 17 26.4583 17.2917 25.875 17.875C25.2917 18.4583 25 19.1667 25 20C25 20.8333 25.2917 21.5417 25.875 22.125C26.4583 22.7083 27.1667 23 28 23ZM28 30C26.6167 30 25.3167 29.7375 24.1 29.2125C22.8833 28.6875 21.825 27.975 20.925 27.075C20.025 26.175 19.3125 25.1167 18.7875 23.9C18.2625 22.6833 18 21.3833 18 20C18 18.6167 18.2625 17.3167 18.7875 16.1C19.3125 14.8833 20.025 13.825 20.925 12.925C21.825 12.025 22.8833 11.3125 24.1 10.7875C25.3167 10.2625 26.6167 10 28 10C29.3833 10 30.6833 10.2625 31.9 10.7875C33.1167 11.3125 34.175 12.025 35.075 12.925C35.975 13.825 36.6875 14.8833 37.2125 16.1C37.7375 17.3167 38 18.6167 38 20C38 21.3833 37.7375 22.6833 37.2125 23.9C36.6875 25.1167 35.975 26.175 35.075 27.075C34.175 27.975 33.1167 28.6875 31.9 29.2125C30.6833 29.7375 29.3833 30 28 30ZM28 28C30.2333 28 32.125 27.225 33.675 25.675C35.225 24.125 36 22.2333 36 20C36 17.7667 35.225 15.875 33.675 14.325C32.125 12.775 30.2333 12 28 12C25.7667 12 23.875 12.775 22.325 14.325C20.775 15.875 20 17.7667 20 20C20 22.2333 20.775 24.125 22.325 25.675C23.875 27.225 25.7667 28 28 28Z" fill="black"/>
</g>
</svg>
