<svg width="57" height="40" viewBox="0 0 57 40" fill="none" xmlns="http://www.w3.org/2000/svg">
<path d="M1 20C1 9.23045 9.73045 0.5 20.5 0.5H36.5C47.2696 0.5 56 9.23045 56 20C56 30.7696 47.2696 39.5 36.5 39.5H20.5C9.73045 39.5 1 30.7696 1 20Z" stroke="#400074"/>
<mask id="mask0_78_337" style="mask-type:alpha" maskUnits="userSpaceOnUse" x="16" y="8" width="25" height="24">
<rect x="16.5" y="8" width="24" height="24" fill="#D9D9D9"/>
</mask>
<g mask="url(#mask0_78_337)">
<path d="M16.5 26V24.425C16.5 23.7083 16.8667 23.125 17.6 22.675C18.3333 22.225 19.3 22 20.5 22C20.7167 22 20.925 22.0042 21.125 22.0125C21.325 22.0208 21.5167 22.0417 21.7 22.075C21.4667 22.425 21.2917 22.7917 21.175 23.175C21.0583 23.5583 21 23.9583 21 24.375V26H16.5ZM22.5 26V24.375C22.5 23.8417 22.6458 23.3542 22.9375 22.9125C23.2292 22.4708 23.6417 22.0833 24.175 21.75C24.7083 21.4167 25.3458 21.1667 26.0875 21C26.8292 20.8333 27.6333 20.75 28.5 20.75C29.3833 20.75 30.1958 20.8333 30.9375 21C31.6792 21.1667 32.3167 21.4167 32.85 21.75C33.3833 22.0833 33.7917 22.4708 34.075 22.9125C34.3583 23.3542 34.5 23.8417 34.5 24.375V26H22.5ZM36 26V24.375C36 23.9417 35.9458 23.5333 35.8375 23.15C35.7292 22.7667 35.5667 22.4083 35.35 22.075C35.5333 22.0417 35.7208 22.0208 35.9125 22.0125C36.1042 22.0042 36.3 22 36.5 22C37.7 22 38.6667 22.2208 39.4 22.6625C40.1333 23.1042 40.5 23.6917 40.5 24.425V26H36ZM24.625 24H32.4C32.2333 23.6667 31.7708 23.375 31.0125 23.125C30.2542 22.875 29.4167 22.75 28.5 22.75C27.5833 22.75 26.7458 22.875 25.9875 23.125C25.2292 23.375 24.775 23.6667 24.625 24ZM20.5 21C19.95 21 19.4792 20.8042 19.0875 20.4125C18.6958 20.0208 18.5 19.55 18.5 19C18.5 18.4333 18.6958 17.9583 19.0875 17.575C19.4792 17.1917 19.95 17 20.5 17C21.0667 17 21.5417 17.1917 21.925 17.575C22.3083 17.9583 22.5 18.4333 22.5 19C22.5 19.55 22.3083 20.0208 21.925 20.4125C21.5417 20.8042 21.0667 21 20.5 21ZM36.5 21C35.95 21 35.4792 20.8042 35.0875 20.4125C34.6958 20.0208 34.5 19.55 34.5 19C34.5 18.4333 34.6958 17.9583 35.0875 17.575C35.4792 17.1917 35.95 17 36.5 17C37.0667 17 37.5417 17.1917 37.925 17.575C38.3083 17.9583 38.5 18.4333 38.5 19C38.5 19.55 38.3083 20.0208 37.925 20.4125C37.5417 20.8042 37.0667 21 36.5 21ZM28.5 20C27.6667 20 26.9583 19.7083 26.375 19.125C25.7917 18.5417 25.5 17.8333 25.5 17C25.5 16.15 25.7917 15.4375 26.375 14.8625C26.9583 14.2875 27.6667 14 28.5 14C29.35 14 30.0625 14.2875 30.6375 14.8625C31.2125 15.4375 31.5 16.15 31.5 17C31.5 17.8333 31.2125 18.5417 30.6375 19.125C30.0625 19.7083 29.35 20 28.5 20ZM28.5 18C28.7833 18 29.0208 17.9042 29.2125 17.7125C29.4042 17.5208 29.5 17.2833 29.5 17C29.5 16.7167 29.4042 16.4792 29.2125 16.2875C29.0208 16.0958 28.7833 16 28.5 16C28.2167 16 27.9792 16.0958 27.7875 16.2875C27.5958 16.4792 27.5 16.7167 27.5 17C27.5 17.2833 27.5958 17.5208 27.7875 17.7125C27.9792 17.9042 28.2167 18 28.5 18Z" fill="#400074"/>
</g>
</svg>
