<svg width="56" height="40" viewBox="0 0 56 40" fill="none" xmlns="http://www.w3.org/2000/svg">
<rect x="0.5" y="0.5" width="55" height="39" rx="19.5" stroke="#400074"/>
<mask id="mask0_4066_177" style="mask-type:alpha" maskUnits="userSpaceOnUse" x="16" y="8" width="24" height="24">
<rect x="16" y="8" width="24" height="24" fill="#D9D9D9"/>
</mask>
<g mask="url(#mask0_4066_177)">
<path d="M23.625 14.4L26.425 10.775C26.625 10.5083 26.8625 10.3125 27.1375 10.1875C27.4125 10.0625 27.7 10 28 10C28.3 10 28.5875 10.0625 28.8625 10.1875C29.1375 10.3125 29.375 10.5083 29.575 10.775L32.375 14.4L36.625 15.825C37.0583 15.9583 37.4 16.2042 37.65 16.5625C37.9 16.9208 38.025 17.3167 38.025 17.75C38.025 17.95 37.9958 18.15 37.9375 18.35C37.8792 18.55 37.7833 18.7417 37.65 18.925L34.9 22.825L35 26.925C35.0167 27.5083 34.825 28 34.425 28.4C34.025 28.8 33.5583 29 33.025 29C32.9917 29 32.8083 28.975 32.475 28.925L28 27.675L23.525 28.925C23.4417 28.9583 23.35 28.9792 23.25 28.9875C23.15 28.9958 23.0583 29 22.975 29C22.4417 29 21.975 28.8 21.575 28.4C21.175 28 20.9833 27.5083 21 26.925L21.1 22.8L18.375 18.925C18.2417 18.7417 18.1458 18.55 18.0875 18.35C18.0292 18.15 18 17.95 18 17.75C18 17.3333 18.1208 16.9458 18.3625 16.5875C18.6042 16.2292 18.9417 15.975 19.375 15.825L23.625 14.4ZM24.85 16.125L20 17.725L23.1 22.2L23 26.975L28 25.6L33 27L32.9 22.2L36 17.775L31.15 16.125L28 12L24.85 16.125Z" fill="black"/>
</g>
</svg>
