<svg width="24" height="24" viewBox="0 0 24 24" fill="none" xmlns="http://www.w3.org/2000/svg">
<g id="widgets">
<mask id="mask0_46_805" style="mask-type:alpha" maskUnits="userSpaceOnUse" x="0" y="0" width="24" height="24">
<rect id="Bounding box" width="24" height="24" fill="#D9D9D9"/>
</mask>
<g mask="url(#mask0_46_805)">
<path id="widgets_2" d="M16.4769 12.4808L11.5384 7.54225L16.4769 2.604L21.4151 7.54225L16.4769 12.4808ZM3.80762 10.8078V3.80775H10.8076V10.8078H3.80762ZM13.1921 20.1923V13.1923H20.1921V20.1923H13.1921ZM3.80762 20.1923V13.1923H10.8076V20.1923H3.80762ZM5.30762 9.30775H9.30762V5.30775H5.30762V9.30775ZM16.5019 10.3923L19.3269 7.56725L16.5019 4.74225L13.6769 7.56725L16.5019 10.3923ZM14.6921 18.6923H18.6921V14.6923H14.6921V18.6923ZM5.30762 18.6923H9.30762V14.6923H5.30762V18.6923Z" fill="black"/>
</g>
</g>
</svg>
